<?xml version="1.0" encoding="utf-8"?>
<!-- Generator: Adobe Illustrator 21.1.0, SVG Export Plug-In . SVG Version: 6.00 Build 0)  -->
<svg version="1.1" id="Capa_1" xmlns="http://www.w3.org/2000/svg" xmlns:xlink="http://www.w3.org/1999/xlink" x="0px" y="0px"
	 viewBox="0 0 58 60" style="enable-background:new 0 0 58 60;" xml:space="preserve">
<style type="text/css">
	.st0{fill:#DA0209;}
</style>
<g>
	<circle class="st0" cx="29.8" cy="31.9" r="23"/>
	<g>
		<defs>
			<path id="SVGID_1_" d="M15.8,23.4h18.1v3.3h0.2c0.9,0,1.8,0,2.8,0c0.5,0,0.9,0.2,1.3,0.5c0.5,0.4,0.9,1,1.1,1.6
				c0.3,0.9,0.6,1.7,0.9,2.6c0.1,0.3,0.1,0.3,0.4,0.3c1.1,0,2.1,0.8,2.3,1.9c0,0.2,0.1,0.4,0.1,0.6c0,0.5,0,1.1,0,1.6h0.8v3.3h-1.6
				h-1.6c0,1.9-1.6,3.2-3.2,3.3c-1.7,0.1-3.4-1.4-3.4-3.3h-8.2c0,1.9-1.6,3.2-3.2,3.3c-1.8,0.1-3.4-1.4-3.4-3.3h-3.3V23.4z
				 M33.9,31.6h5c0,0,0-0.1,0-0.1c-0.2-0.8-0.5-1.5-0.7-2.2c-0.1-0.3-0.3-0.6-0.4-0.8c-0.2-0.3-0.5-0.5-1-0.5c-0.9,0-1.7,0-2.6,0
				h-0.2V31.6z"/>
		</defs>
		<use xlink:href="#SVGID_1_"  style="overflow:visible;fill-rule:evenodd;clip-rule:evenodd;fill:#FFFFFF;"/>
		<clipPath id="SVGID_2_">
			<use xlink:href="#SVGID_1_"  style="overflow:visible;"/>
		</clipPath>
	</g>
</g>
</svg>
