<?xml version="1.0" encoding="utf-8"?>
<!-- Generator: Adobe Illustrator 21.1.0, SVG Export Plug-In . SVG Version: 6.00 Build 0)  -->
<svg version="1.0" id="Capa_1" xmlns="http://www.w3.org/2000/svg" xmlns:xlink="http://www.w3.org/1999/xlink" x="0px" y="0px"
	 viewBox="0 0 134 128" style="enable-background:new 0 0 134 128;" xml:space="preserve">
<style type="text/css">
	.st0{fill:#FFFFFF;}
</style>
<g>
	<g>
		<path class="st0" d="M67,122.7c-31.4,0-56.9-25.5-56.9-56.9S35.6,8.9,67,8.9c31.4,0,56.9,25.5,56.9,56.9S98.4,122.7,67,122.7z
			 M67,12.3c-29.5,0-53.5,24-53.5,53.5s24,53.5,53.5,53.5s53.5-24,53.5-53.5S96.5,12.3,67,12.3z"/>
	</g>
	<g>
		<g>
			<circle class="st0" cx="66.8" cy="62.3" r="10.9"/>
		</g>
		<g>
			<path class="st0" d="M66.8,77.6c-12,0-21.8,5.9-21.8,13.1V95h43.6v-4.4C88.6,83.4,78.8,77.6,66.8,77.6z"/>
		</g>
	</g>
	<g>
		<g>
			<circle class="st0" cx="39.2" cy="49.7" r="7.4"/>
		</g>
		<g>
			<path class="st0" d="M39.2,60.1c-8.2,0-14.9,4-14.9,8.9v3h29.7v-3C54.1,64.1,47.4,60.1,39.2,60.1z"/>
		</g>
	</g>
	<g>
		<g>
			<circle class="st0" cx="94.4" cy="49.7" r="7.4"/>
		</g>
		<g>
			<path class="st0" d="M94.4,60.1c-8.2,0-14.9,4-14.9,8.9v3h29.7v-3C109.2,64.1,102.6,60.1,94.4,60.1z"/>
		</g>
	</g>
</g>
</svg>
