<?xml version="1.0" encoding="utf-8"?>
<!-- Generator: Adobe Illustrator 21.1.0, SVG Export Plug-In . SVG Version: 6.00 Build 0)  -->
<svg version="1.0" id="Capa_1" xmlns="http://www.w3.org/2000/svg" xmlns:xlink="http://www.w3.org/1999/xlink" x="0px" y="0px"
	 viewBox="0 0 408 122" style="enable-background:new 0 0 408 122;" xml:space="preserve">
<style type="text/css">
	.st0{fill-rule:evenodd;clip-rule:evenodd;fill:#DA0209;}
	.st1{fill:#DA0209;}
</style>
<g>
	<g>
		<g>
			<g>
				<path class="st0" d="M63,25.5c1.6,0,2.8,1.3,2.8,2.8c0,1.6-1.3,2.8-2.8,2.8c-1.6,0-2.8-1.3-2.8-2.8C60.2,26.7,61.5,25.5,63,25.5
					 M85.8,50.8c0.1,0.1,0.1,0.2,0.2,0.2l0,0c0,0,0.1,0.1,0.1,0.1l0,0c0,0,0,0,0,0c0,0,0,0.1,0.1,0.1c0,0,0,0,0,0v0c0,0,0,0,0,0
					c0,0.1,0.1,0.2,0.1,0.3c0,0,0,0,0,0l0,0c0,0,0,0,0,0c0,0,0,0.1,0,0.1l0,0c0,0,0,0,0,0c0,0,0,0.1,0,0.1c0,0,0,0,0,0l0,0
					c0,0,0,0,0,0c0,0,0,0.1,0,0.1l0,0c0,0,0,0.1,0,0.1c0,0,0,0,0,0l0,0c0,0,0,0,0,0c0,0,0,0.1,0,0.1c0,0,0,0,0,0l0,0c0,0,0,0,0,0
					c0,0,0,0.1,0,0.1c0,0,0,0,0,0l0,0c0,0,0,0,0,0l0,0c0,0.1,0,0.2,0,0.3l0,0c0,0.1,0,0.1,0,0.2c0,0,0,0,0,0c0,0,0,0,0,0
					c0,0,0,0,0,0c0,0,0,0.1,0,0.1c0,0,0,0,0,0v0c0,0,0,0,0,0c0,0,0,0.1,0,0.1c0,0,0,0,0,0l0,0c0,0,0,0,0,0c0,0,0,0.1,0,0.1l0,0.1
					c0,0,0,0,0,0l0,0.1l0,0l0,0.1c0,0,0,0,0,0c0,0,0,0.1,0,0.1c0,0,0,0,0,0l0,0c0,0,0,0,0,0c0,0,0,0.1,0,0.1c0,0,0,0,0,0l0,0.1
					c0,0,0,0,0,0l0,0.1c0,0,0,0,0,0l0,0.1l0,0.1c0,0,0,0,0,0l0,0.1l0,0.1c0,0,0,0,0,0l0,0.1l0,0.1l0,0.1l0,0.1l0,0l0,0.2
					c0,0,0,0,0,0l0,0c0,0,0,0.1-0.1,0.1l0,0.1c0,0,0,0,0,0L86,55.8c0,0,0,0,0,0l0,0c0,0,0,0,0,0l0,0.1l0,0.1l0,0l0,0c0,0,0,0,0,0
					l0,0.1l0,0.1c0,0,0,0,0,0c0,0,0,0,0,0c0,0.1-0.1,0.2-0.2,0.3l-0.1,0.1l-0.1,0.1l0,0c-1.1,2.3-3.2,4.9-5.7,7.3v0l0,0
					c0.1-0.1,0.1-0.2,0.2-0.3l0.1-0.1c0.1-0.1,0.1-0.1,0.2-0.2l0-0.1c0,0,0,0,0,0l0.1-0.1c0.1-0.1,0.1-0.2,0.2-0.2l0.1-0.2
					c0,0,0,0,0,0c0-0.1,0.1-0.1,0.1-0.2c0,0,0,0,0,0c0.1-0.1,0.1-0.2,0.2-0.3l0.1-0.2c0.1-0.1,0.1-0.2,0.2-0.2l0.1-0.1
					c0.1-0.1,0.1-0.2,0.2-0.3c0,0,0,0,0,0l0.1-0.2l0,0c0-0.1,0.1-0.1,0.1-0.2l0-0.1l0.1-0.1l0-0.1c0-0.1,0.1-0.2,0.1-0.3
					c0,0,0,0,0,0l0-0.1c0,0,0,0,0,0l0-0.1c0.8-1.5,1.4-3,1.8-4.7l0,0v0l0,0l0,0l0,0l0,0v0l0,0l0,0l0,0l0,0l0,0l0,0l0,0l0,0v0l0,0
					l0,0l0,0l0,0l0,0l0,0l0,0l0,0l0,0l0,0l0,0l0,0l0,0l0,0l0,0l0,0l0,0l0,0l0,0l0,0l0,0l0,0c0.2-1,0.1-1.9-0.3-2.5
					c-1.9-2.7-9.3-0.7-16.6,4.5c-3.1,2.2-5.7,4.6-7.4,6.9c-0.1,0.1-0.2,0.1-0.3,0.1c-0.1-0.1-0.1-0.2-0.1-0.3
					c0.4-0.9,0.8-1.8,1.5-2.7c0,0,0,0,0,0c0.7-1,1.5-2,2.3-3c0,0,0,0,0,0c1.4-1.5,3.1-3.1,5.1-4.4c6.3-4.5,13.3-5.7,16.4-4.2l0,0
					l0,0l0.1,0l0,0l0,0c0,0,0,0,0,0l0,0l0,0l0,0c0,0,0,0,0,0l0,0c0,0,0,0,0,0C85.2,50.2,85.6,50.5,85.8,50.8
					C85.8,50.8,85.8,50.8,85.8,50.8z M84.5,47.7c-0.2-0.5-0.4-1-0.8-1.5c-3-3.7-11.6-1.5-19.3,5c-7.7,6.5-11.5,14.7-8.5,18.4
					c0.6,0.8,1.5,1.3,2.6,1.6c0.3,0.1,0.6,0.2,1,0.2c0.1,0,0.2,0.1,0.2,0.2c0,0.1-0.1,0.2-0.2,0.2c-3.1,0.4-5.6-0.2-7-2
					c-3.5-4.4,0.9-14,9.7-21.5c1.8-1.5,3.7-2.8,5.5-3.9c0,0,0,0,0,0c4.7-2.7,9-3.9,12.3-3.8c0,0,0,0,0,0c2,0.1,3.6,0.8,4.6,2.1
					c0.6,0.8,0.9,1.6,0.8,2.6c0,0.7-0.2,1.6-0.5,2.5c0,0.1-0.1,0.1-0.2,0.1C84.6,47.9,84.5,47.8,84.5,47.7z M81.8,38.2
					c0,0.3,0,0.6,0,0.8c0,0.1-0.1,0.2-0.2,0.2c-0.1,0-0.2,0-0.2-0.1c-0.1-0.1-0.2-0.3-0.3-0.4c0,0,0,0,0,0c0,0-0.1-0.1-0.1-0.1
					c0,0,0,0,0,0c-2.8-3.8-11.5-2.1-19.5,3.9c-4.9,3.6-9.6,8.5-12.3,14c-1.9,3.8-2.3,7.1-0.7,9.1c0,0,0,0,0,0
					c0.2,0.3,0.5,0.5,0.7,0.7c0.1,0.1,0.1,0.2,0,0.3c-0.1,0.1-0.2,0.1-0.2,0.1c-1.3-0.4-2.5-1.1-3.3-2.1
					c-3.9-4.9,0.8-15.5,10.4-23.6c9.6-8.2,20.6-10.9,24.5-6C81.5,35.9,81.8,36.9,81.8,38.2z M43.2,57.9c-0.6-0.3-1.1-0.8-1.5-1.3
					c-2.4-3-1.1-8.5,2.8-14c1.1-1.5,2.3-3,3.8-4.5c1.8-1.9,4.1-3.8,6.3-5.3c0.1,0,0.1-0.1,0.1-0.2c0-0.1,0-0.1-0.1-0.2l-1-0.8
					c-0.1-0.1-0.1-0.1-0.1-0.2c0-0.1,0.1-0.1,0.2-0.2c2-0.4,4.1-0.7,6.1-1.2c0.1,0,0.2,0,0.2,0.1c0.1,0.1,0.1,0.1,0,0.2l-2.2,6.5
					c0,0.1-0.1,0.1-0.2,0.1c-0.1,0-0.2,0-0.2-0.1l-0.6-1.2c0-0.1-0.1-0.1-0.1-0.1c-0.1,0-0.1,0-0.2,0c-1.6,1.1-3.3,2.4-4.9,3.9
					c-5.6,5.3-8.8,11.5-8.6,15.7c0,0.9,0.3,1.6,0.6,2.5c0,0.1,0,0.2-0.1,0.2C43.4,57.9,43.3,57.9,43.2,57.9z"/>
				<path d="M101.8,31.9l9.2,28.9l9.7-29c0.3-0.9,1.1-1.5,2.1-1.5h8.4c1.2,0,2.2,1,2.2,2.2v34.7c0,1.2-1,2.2-2.2,2.2h-3.6
					c-1.2,0-2.2-1-2.2-2.2V40.1l-9.7,27.8c-0.3,0.9-1.1,1.5-2.1,1.5h-5.4c-1,0-1.8-0.6-2.1-1.5l-9.1-27.8v27.1c0,1.2-1,2.2-2.2,2.2
					h-3.6c-1.2,0-2.2-1-2.2-2.2V32.5c0-1.2,1-2.2,2.2-2.2h8.4C100.7,30.3,101.5,30.9,101.8,31.9"/>
				<path d="M137.7,67.2v-2.6c0-1.2,1-2.2,2.2-2.2h15.6c2.9,0,4.8-0.3,5.7-0.9c1.4-0.8,2.1-2.1,2.1-3.7c0-1.9-0.8-3.3-2.4-4.1
					c-0.9-0.5-2.4-0.7-4.4-0.7h-7.2c-4.4,0-7.6-0.8-9.6-2.4c-1.2-1-2.2-2.3-2.9-3.8c-0.7-1.5-1-3.2-1-4.9c0-2.7,0.8-5.3,2.4-7.5
					c1.6-2.2,4.1-3.5,7.5-3.8c1.2-0.1,2.9-0.2,5.2-0.2h17.2c1.2,0,2.2,1,2.2,2.2v2.6c0,1.2-1,2.2-2.2,2.2h-15.3
					c-2.6,0-4.4,0.1-5.2,0.3c-1.8,0.4-2.6,1.8-2.6,4c0,1.9,0.7,3.1,2.2,3.8c1,0.4,2.6,0.7,4.9,0.7h6.3c3.2,0,5.6,0.3,7.2,0.8
					c2.8,0.9,4.7,2.6,5.7,4.9c0.8,1.9,1.3,3.9,1.3,6.1c0,2.4-0.5,4.5-1.6,6.4c-1.5,2.7-3.8,4.3-6.9,4.8c-1.5,0.2-3.7,0.4-6.7,0.4
					h-17.4C138.6,69.4,137.7,68.4,137.7,67.2"/>
				<path d="M196.9,53.4l-5.2-13.7l-5.6,13.7h4.1h4.1H196.9z M172,66.4l14.4-34.7c0.3-0.8,1.1-1.4,2-1.4h6.7c0.9,0,1.7,0.5,2,1.4
					l14.3,34.7c0.3,0.7,0.2,1.4-0.2,2.1c-0.4,0.6-1.1,1-1.8,1h-5c-0.9,0-1.7-0.5-2-1.4l-2.9-7.6h-2.9h-6.4h-6L181,68
					c-0.3,0.8-1.1,1.3-2,1.3h-5c-0.8,0-1.4-0.3-1.8-1C171.8,67.8,171.7,67,172,66.4z"/>
				<path d="M203.4,35.1v-2.6c0-1.2,1-2.2,2.2-2.2h29.3c1.2,0,2.2,1,2.2,2.2v2.6c0,1.2-1,2.2-2.2,2.2h-10.7c0,10,0,19.9,0,29.9
					c0,1.2-1,2.2-2.2,2.2H218c-1.2,0-2.2-1-2.2-2.2c0-10,0-19.9,0-29.9h-10.3C204.4,37.3,203.4,36.3,203.4,35.1"/>
				<path d="M265.5,32.5v2.6c0,1.2-1,2.2-2.2,2.2h-8.6c-2.8,0-4.9,0.2-6.2,0.6c-1.3,0.4-2.4,1.2-3.2,2.3c-0.6,0.8-1,1.5-1.2,2.3
					c-0.2,0.8-0.4,2.1-0.5,4v0h14.3c1.2,0,2.2,1,2.2,2.2v2.6c0,1.2-1,2.2-2.2,2.2h-14.3v0l0,0c0.3,3.4,1.3,5.7,2.9,7
					c1.7,1.3,4.5,2,8.6,2h8.3c1.2,0,2.2,1,2.2,2.2v2.6c0,1.2-1,2.2-2.2,2.2h-8.6c-2.9,0-5.5-0.2-7.8-0.5c-3.5-0.6-6.3-2.1-8.4-4.6
					c-3-3.6-4.4-8.5-4.4-14.6c0-6.8,2.1-12.1,6.3-15.9c3.2-2.9,6.9-3.4,11.1-3.4h11.9C264.5,30.3,265.5,31.3,265.5,32.5"/>
				<path d="M270.2,30.3h3.9c1.2,0,2.2,1,2.2,2.2v19.7c0,0,0,0.1,0,0.1c0.1,2.8,0.2,4.6,0.4,5.5c0.3,1.8,1.1,3,2.6,3.6
					c1.4,0.7,4,1,7.6,1h5.8c1.2,0,2.2,1,2.2,2.2v2.6c0,1.2-1,2.2-2.2,2.2H286c-4.2,0-7.2-0.2-9.1-0.7c0,0,0,0-0.1,0
					c-4.3-1.3-7-4-8.2-8.2c-0.4-1.6-0.7-4.4-0.7-8.2V32.5C268,31.3,269,30.3,270.2,30.3"/>
				<path d="M42,64.6v2.6c0,1.2-1,2.2-2.2,2.2H28.4c-2.6,0-4.6-0.1-5.9-0.4c-4.8-0.9-8.2-3.6-10.2-8c-1.3-3-2-6.6-2-11
					c0-5.2,1-9.5,3.1-12.8c1.5-2.4,3.4-4.1,5.9-5.2c2.5-1.1,5.7-1.6,9.6-1.6h11c1.2,0,2.2,1,2.2,2.2v2.6c0,1.2-1,2.2-2.2,2.2H29.7
					c-3.7,0-6.4,1-8.2,3c-1.4,1.6-2.1,4.6-2.1,8.9c0,5.8,1.1,9.5,3.3,11.4c1.6,1.3,4,1.9,7.3,1.9h9.8C41,62.4,42,63.4,42,64.6"/>
			</g>
			<g>
				<g>
					<g>
						<g>
							<path d="M353.5,26c-8.9,0-16.4,7.3-16.4,16.4s7.3,16.4,16.4,16.4c8.9,0,16.4-7.3,16.4-16.4S362.5,26,353.5,26z M353.5,54.2
								c-6.6,0-11.9-5.4-11.9-11.9s5.4-11.9,11.9-11.9c6.6,0,11.9,5.4,11.9,11.9S360.1,54.2,353.5,54.2z"/>
							<path d="M360,46.8l-3.9-3.9c0.1-0.3,0.1-0.6,0.1-0.9c0-1-0.6-1.9-1.5-2.4v-0.1l-0.4-5.5c-0.1-2.5-1.8-2.5-1.9,0l-0.4,5.5v0.1
								c-0.9,0.4-1.5,1.3-1.5,2.4c0,1.5,1.2,2.8,2.8,2.8c0.1,0,0.3,0,0.4,0l0.1,0.1l4.5,3.3C360.7,49.8,361.8,48.6,360,46.8z"/>
						</g>
						<path d="M353.5,61.7c-10.7,0-19.4-8.7-19.4-19.4h-16.7c-3,0-5.4,2.4-5.4,5.4V79c0,3,2.4,5.4,5.4,5.4h11.5c1.6-0.7,3.3-1,5.2-1
							l0,0c1.8,0,3.6,0.4,5.1,1h22.5c3,0,5.4-2.4,5.4-5.4V56C363.7,59.6,358.8,61.7,353.5,61.7z"/>
					</g>
					<g>
						<path d="M380.2,87c-5.1,0-9.4,4.3-9.4,9.4c0,5.2,4.3,9.5,9.5,9.5c5.1,0,9.4-4.3,9.4-9.4C389.8,91.4,385.5,87,380.2,87z
							 M380.2,100.6c-2.4,0-4.2-1.8-4-4.2c0-2.2,1.9-4,4.2-4c2.4,0,4.2,1.8,4,4.2C384.4,98.8,382.5,100.6,380.2,100.6z"/>
						<path d="M334.2,87c-5.2,0-9.5,4.2-9.5,9.4c0,5.2,4.2,9.5,9.4,9.5s9.5-4.2,9.5-9.5C343.6,91.4,339.2,87,334.2,87z M334,100.6
							c-2.2,0-4-1.9-4-4.2c0-2.4,1.8-4.2,4.2-4c2.2,0,4,1.8,4,4.2C338.2,98.8,336.2,100.6,334,100.6z"/>
					</g>
					<g>
						<path d="M320.9,96.4c0-3.7,1.5-7,4-9.4c-3,0-6,0-8.8,0c-1.3,0-2.4,1.2-2.4,2.7c0,1.8,0,3.6,0,5.4c0,1.3,0.9,2.5,2.2,2.5
							c1.6,0.1,3.3,0,4.9,0C320.9,97.3,320.9,96.9,320.9,96.4z"/>
						<path d="M395.5,87h-6l0.1,0.1c2.5,2.5,3.9,5.8,3.9,9.4c0,0.4,0,0.7,0,1.2c2.5,0.1,3.6,0,4.5-2.1c0-2.1,0-4.3,0-6.4
							C397.6,88.1,396.8,87.2,395.5,87z"/>
						<path d="M394.4,79.3h-1.5c-0.9,0-1.6-0.7-1.6-1.6c0-0.9,0.7-1.6,1.6-1.6h0.9l0,0h0.6c0.4,0,0.9-0.4,0.9-0.9l0,0
							c0-1-0.3-2.2-0.7-3.1c-3-5.4-6.1-10.7-9.2-16.1c-0.7-1.2-1.6-1.6-3.1-1.5c-3.1,0.3-6.3,0.3-9.2,0c-3-0.3-4.8,1.3-4.8,4v28.5
							h-24.9l0.1,0.1c2.5,2.5,3.9,5.8,3.9,9.2c0,0.4,0,0.9,0,1.2h20c0-0.4,0-0.9,0-1.3c0-7.3,5.8-13.1,13.1-13.1l0,0l0,0l0,0l0,0
							c0.4,0,0.9,0,1.3,0.1l0,0c0.1,0,0.3,0,0.4,0.1c0.3,0,0.7,0.1,1,0.1c0.1,0,0.1,0,0.3,0l0,0c0.7,0.1,1.5,0.4,2.2,0.7l0,0h9.5
							c0-1.5,0-2.8,0-4.3C395.3,79.7,394.9,79.3,394.4,79.3z M386.4,70.8c-1.9,0-4,0-6,0c-1.9,0-3.9,0-5.8,0c-0.7,0-1-0.3-1-1
							c0-3,0-6,0-8.9c0-0.7,0.3-1,1-1c2.1,0,4.2,0,6.4,0c0.3,0,0.9,0.3,1,0.6c1.8,3,3.4,6,5.2,9.1C387.6,70.3,387.4,70.8,386.4,70.8
							z"/>
					</g>
				</g>
				<circle class="st1" cx="353.4" cy="42" r="2.9"/>
			</g>
		</g>
	</g>
	<g>
		<path class="st1" d="M22.1,90.4c0-2.6-0.5-3.8-2.2-3.8c-1.9,0-2.3,1.9-2.3,7c0,5.5,0.8,6.5,2.3,6.5c1.3,0,2.3-0.7,2.3-4.6h3.7
			c0,3.9-1,7.3-5.8,7.3c-5.5,0-6.2-3.9-6.2-9.4s0.7-9.4,6.2-9.4c5.2,0,5.6,3.8,5.6,6.5H22.1z"/>
		<path class="st1" d="M33.8,83.9c5.5,0,6.2,3.9,6.2,9.4s-0.7,9.4-6.2,9.4s-6.2-3.9-6.2-9.4S28.3,83.9,33.8,83.9z M33.8,100.1
			c2.2,0,2.5-1.9,2.5-6.7c0-4.9-0.4-6.7-2.5-6.7s-2.5,1.9-2.5,6.7C31.3,98.3,31.6,100.1,33.8,100.1z"/>
		<path class="st1" d="M46.4,84.3l4.4,12.4h0.1V84.3h3.4v18.2H50l-4.5-12.7h-0.1v12.7h-3.4V84.3H46.4z"/>
		<path class="st1" d="M67.4,84.3v3h-4v15.2h-3.7V87.3h-4v-3H67.4z"/>
		<path class="st1" d="M69,84.3h6.8c3,0,4.8,1.6,4.8,4.7c0,2.4-1,4-3,4.5v0.1c2.5,0.3,2.9,1.7,2.9,5.5c0,1.9,0.1,2.9,0.8,3.3v0.2h-4
			c-0.4-0.5-0.4-1.2-0.5-1.9l-0.1-3.5c-0.1-1.4-0.7-2.3-2.2-2.3h-2v7.7H69V84.3z M72.6,92.2h1.5c1.8,0,2.7-0.8,2.7-2.7
			c0-1.7-0.9-2.5-2.5-2.5h-1.7V92.2z"/>
		<path class="st1" d="M88.9,83.9c5.5,0,6.2,3.9,6.2,9.4s-0.7,9.4-6.2,9.4c-5.5,0-6.2-3.9-6.2-9.4S83.4,83.9,88.9,83.9z M88.9,100.1
			c2.2,0,2.5-1.9,2.5-6.7c0-4.9-0.4-6.7-2.5-6.7s-2.5,1.9-2.5,6.7C86.4,98.3,86.7,100.1,88.9,100.1z"/>
		<path class="st1" d="M97.2,102.5V84.3h3.7v15.2h6.5v3H97.2z"/>
		<path class="st1" d="M115.3,84.3h6c5.1,0,6,3.5,6,8.8c0,6.4-1.4,9.3-6.2,9.3h-5.8V84.3z M119,99.8h1.6c2.5,0,3.1-1.6,3.1-6.5
			c0-4.1-0.3-6.2-3.1-6.2H119V99.8z"/>
		<path class="st1" d="M139.9,84.3v3h-6.5v4.3h6.1v3h-6.1v4.9h6.7v3h-10.4V84.3H139.9z"/>
		<path class="st1" d="M148.2,84.3h6c5.1,0,6,3.5,6,8.8c0,6.4-1.4,9.3-6.2,9.3h-5.8V84.3z M151.9,99.8h1.6c2.5,0,3.1-1.6,3.1-6.5
			c0-4.1-0.3-6.2-3.1-6.2h-1.6V99.8z"/>
		<path class="st1" d="M162.9,102.5V84.3h3.7v18.2H162.9z"/>
		<path class="st1" d="M172.2,96.8v0.5c0,1.7,0.5,2.8,2.4,2.8c1.1,0,2.2-0.7,2.2-2.2c0-1.7-0.8-2.3-3.3-3.1
			c-3.3-1.1-4.8-2.5-4.8-5.5c0-3.5,2.2-5.3,5.6-5.3c3.3,0,5.6,1.4,5.6,4.9v0.5h-3.5c0-1.7-0.6-2.7-2-2.7c-1.7,0-2.1,1-2.1,2.1
			c0,1.1,0.3,1.8,1.9,2.5l2.8,1.2c2.7,1.2,3.5,2.6,3.5,4.8c0,3.8-2.3,5.6-6.3,5.6c-4.1,0-5.8-1.9-5.8-5.3v-0.7H172.2z"/>
		<path class="st1" d="M193.1,84.3v3h-4v15.2h-3.7V87.3h-4v-3H193.1z"/>
		<path class="st1" d="M194.7,84.3h6.8c3,0,4.8,1.6,4.8,4.7c0,2.4-1,4-3,4.5v0.1c2.5,0.3,2.9,1.7,2.9,5.5c0,1.9,0.1,2.9,0.8,3.3v0.2
			h-4c-0.4-0.5-0.4-1.2-0.5-1.9l-0.1-3.5c-0.1-1.4-0.7-2.3-2.2-2.3h-2v7.7h-3.7V84.3z M198.3,92.2h1.5c1.8,0,2.7-0.8,2.7-2.7
			c0-1.7-0.9-2.5-2.5-2.5h-1.7V92.2z"/>
		<path class="st1" d="M209,102.5V84.3h3.7v18.2H209z"/>
		<path class="st1" d="M215.4,84.3h6.1c3,0,5.2,1.1,5.2,4.6c0,2-0.9,3.5-2.7,4v0.1c2,0.3,3.3,1.8,3.3,4.2c0,2.8-1.4,5.3-5.7,5.3
			h-6.2V84.3z M219,91.8h1c2,0,2.9-0.7,2.9-2.4c0-1.7-0.8-2.4-2.6-2.4H219V91.8z M219,99.8h1.4c1.8,0,3-0.6,3-2.7s-1.2-2.7-2.8-2.7
			H219V99.8z"/>
		<path class="st1" d="M232.9,84.3V97c0,1.8,0.4,3.2,2.1,3.2c1.7,0,2.1-1.3,2.1-3.2V84.3h3.7V97c0,4.6-2.8,5.9-5.8,5.9
			c-3,0-5.8-1-5.8-5.9V84.3H232.9z"/>
		<path class="st1" d="M250.9,90.4c0-2.6-0.5-3.8-2.2-3.8c-1.9,0-2.3,1.9-2.3,7c0,5.5,0.8,6.5,2.3,6.5c1.3,0,2.3-0.7,2.3-4.6h3.7
			c0,3.9-1,7.3-5.8,7.3c-5.5,0-6.2-3.9-6.2-9.4s0.7-9.4,6.2-9.4c5.2,0,5.6,3.8,5.6,6.5H250.9z"/>
		<path class="st1" d="M257,102.5V84.3h3.7v18.2H257z"/>
		<path class="st1" d="M269.2,83.9c5.5,0,6.2,3.9,6.2,9.4s-0.7,9.4-6.2,9.4s-6.2-3.9-6.2-9.4S263.7,83.9,269.2,83.9z M269.2,100.1
			c2.2,0,2.5-1.9,2.5-6.7c0-4.9-0.4-6.7-2.5-6.7s-2.5,1.9-2.5,6.7C266.7,98.3,267.1,100.1,269.2,100.1z M268.9,79.6h3.5l-2.5,3.7
			h-2.4L268.9,79.6z"/>
		<path class="st1" d="M281.8,84.3l4.4,12.4h0.1V84.3h3.4v18.2h-4.2L281,89.7h-0.1v12.7h-3.4V84.3H281.8z"/>
	</g>
</g>
</svg>
